<svg xmlns="http://www.w3.org/2000/svg" xmlns:xlink="http://www.w3.org/1999/xlink" width="1300" zoomAndPan="magnify" viewBox="0 0 974.88 374.999991" height="500" preserveAspectRatio="xMidYMid meet" version="1.0"><path fill="#000000" d="M 454.246094 259.332031 C 452.71875 272.289062 447.960938 282.265625 439.902344 289.3125 C 431.863281 296.355469 421.167969 299.867188 407.820312 299.867188 C 393.359375 299.867188 381.765625 294.691406 373.058594 284.300781 C 364.351562 273.929688 359.984375 260.046875 359.984375 242.679688 L 359.984375 230.898438 C 359.984375 219.511719 362.019531 209.511719 366.082031 200.871094 C 370.148438 192.234375 375.898438 185.605469 383.359375 180.984375 C 390.820312 176.367188 399.457031 174.058594 409.25 174.058594 C 422.253906 174.058594 432.695312 177.683594 440.523438 184.957031 C 448.378906 192.210938 452.953125 202.257812 454.222656 215.101562 L 437.984375 215.101562 C 436.574219 205.308594 433.550781 198.238281 428.859375 193.851562 C 424.171875 189.460938 417.636719 187.269531 409.230469 187.269531 C 398.902344 187.269531 390.820312 191.078125 384.976562 198.722656 C 379.109375 206.347656 376.199219 217.203125 376.199219 231.292969 L 376.199219 243.164062 C 376.199219 256.46875 378.972656 267.046875 384.515625 274.898438 C 390.058594 282.753906 397.820312 286.679688 407.796875 286.679688 C 416.757812 286.679688 423.640625 284.644531 428.445312 280.582031 C 433.25 276.515625 436.414062 269.449219 437.984375 259.355469 L 454.222656 259.355469 Z M 454.246094 259.332031 " fill-opacity="1" fill-rule="nonzero"/><path fill="#000000" d="M 530.003906 289.171875 C 523.953125 296.285156 515.058594 299.84375 503.351562 299.84375 C 493.648438 299.84375 486.257812 297.027344 481.199219 291.390625 C 476.117188 285.753906 473.554688 277.417969 473.507812 266.375 L 473.507812 207.179688 L 489.074219 207.179688 L 489.074219 265.960938 C 489.074219 279.75 494.6875 286.65625 505.890625 286.65625 C 517.785156 286.65625 525.683594 282.21875 529.609375 273.375 L 529.609375 207.199219 L 545.179688 207.199219 L 545.179688 298.179688 L 530.375 298.179688 L 530.027344 289.171875 Z M 530.003906 289.171875 " fill-opacity="1" fill-rule="nonzero"/><path fill="#000000" d="M 645.8125 253.695312 C 645.8125 267.601562 642.625 278.777344 636.226562 287.210938 C 629.828125 295.640625 621.261719 299.867188 610.496094 299.867188 C 598.996094 299.867188 590.125 295.800781 583.84375 287.671875 L 583.082031 298.179688 L 568.785156 298.179688 L 568.785156 169.019531 L 584.351562 169.019531 L 584.351562 217.203125 C 590.632812 209.417969 599.296875 205.515625 610.335938 205.515625 C 621.375 205.515625 630.0625 209.695312 636.367188 218.035156 C 642.671875 226.394531 645.835938 237.828125 645.835938 252.332031 L 645.835938 253.671875 Z M 630.246094 251.917969 C 630.246094 241.316406 628.191406 233.140625 624.101562 227.363281 C 620.011719 221.589844 614.125 218.703125 606.433594 218.703125 C 596.175781 218.703125 588.808594 223.460938 584.328125 233 L 584.328125 272.359375 C 589.085938 281.898438 596.523438 286.65625 606.617188 286.65625 C 614.078125 286.65625 619.875 283.769531 624.03125 277.992188 C 628.191406 272.21875 630.246094 263.535156 630.246094 251.917969 Z M 630.246094 251.917969 " fill-opacity="1" fill-rule="nonzero"/><path fill="#000000" d="M 703.140625 299.867188 C 690.804688 299.867188 680.78125 295.824219 673.042969 287.71875 C 665.308594 279.609375 661.449219 268.777344 661.449219 255.21875 L 661.449219 252.355469 C 661.449219 243.324219 663.183594 235.265625 666.625 228.171875 C 670.066406 221.082031 674.890625 215.539062 681.082031 211.519531 C 687.273438 207.5 693.992188 205.515625 701.222656 205.515625 C 713.046875 205.515625 722.242188 209.417969 728.800781 217.203125 C 735.359375 224.984375 738.640625 236.140625 738.640625 250.667969 L 738.640625 257.136719 L 676.992188 257.136719 C 677.226562 266.097656 679.835938 273.351562 684.847656 278.871094 C 689.859375 284.390625 696.234375 287.164062 703.972656 287.164062 C 709.46875 287.164062 714.109375 286.03125 717.921875 283.792969 C 721.734375 281.550781 725.058594 278.570312 727.921875 274.875 L 737.417969 282.265625 C 729.792969 293.976562 718.359375 299.84375 703.117188 299.84375 Z M 701.222656 218.289062 C 694.941406 218.289062 689.675781 220.574219 685.425781 225.148438 C 681.175781 229.722656 678.519531 236.117188 677.523438 244.363281 L 723.097656 244.363281 L 723.097656 243.1875 C 722.65625 235.289062 720.507812 229.167969 716.699219 224.824219 C 712.886719 220.480469 707.738281 218.3125 701.222656 218.3125 Z M 701.222656 218.289062 " fill-opacity="1" fill-rule="nonzero"/><path fill="#000000" d="M 869.300781 266.144531 L 818.003906 266.144531 L 806.476562 298.179688 L 789.824219 298.179688 L 836.574219 175.742188 L 850.707031 175.742188 L 897.546875 298.179688 L 880.988281 298.179688 Z M 822.898438 252.933594 L 864.519531 252.933594 L 843.664062 195.675781 Z M 822.898438 252.933594 " fill-opacity="1" fill-rule="nonzero"/><path fill="#000000" d="M 915.21875 175.742188 L 931.363281 175.742188 L 931.363281 298.179688 L 915.21875 298.179688 Z M 915.21875 175.742188 " fill-opacity="1" fill-rule="nonzero"/><path fill="#000000" d="M 259.28125 59.796875 L 259.28125 170.339844 L 147.214844 170.339844 L 147.214844 282.40625 L 36.671875 282.40625 L 36.671875 299.867188 L 276.742188 299.867188 L 276.742188 59.796875 Z M 155.945312 282.382812 L 155.945312 179.046875 L 259.28125 179.046875 L 259.28125 282.382812 Z M 155.945312 282.382812 " fill-opacity="1" fill-rule="nonzero"/></svg>