<svg xmlns="http://www.w3.org/2000/svg" xmlns:xlink="http://www.w3.org/1999/xlink" width="1300" zoomAndPan="magnify" viewBox="0 0 974.88 374.999991" height="500" preserveAspectRatio="xMidYMid meet" version="1.0"><path fill="#ffffff" d="M 453.644531 264.6875 C 452.117188 277.722656 447.300781 287.789062 439.214844 294.871094 C 431.109375 301.953125 420.34375 305.492188 406.921875 305.492188 C 392.363281 305.492188 380.699219 300.28125 371.914062 289.835938 C 363.144531 279.390625 358.757812 265.425781 358.757812 247.917969 L 358.757812 236.070312 C 358.757812 224.621094 360.808594 214.535156 364.90625 205.835938 C 369 197.132812 374.789062 190.464844 382.300781 185.808594 C 389.8125 181.152344 398.492188 178.816406 408.375 178.816406 C 421.460938 178.816406 431.972656 182.464844 439.863281 189.78125 C 447.769531 197.097656 452.351562 207.21875 453.664062 220.144531 L 437.328125 220.144531 C 435.90625 210.292969 432.851562 203.15625 428.144531 198.734375 C 423.4375 194.3125 416.839844 192.117188 408.375 192.117188 C 397.988281 192.117188 389.847656 195.964844 383.953125 203.640625 C 378.058594 211.316406 375.113281 222.265625 375.113281 236.429688 L 375.113281 248.382812 C 375.113281 261.777344 377.898438 272.417969 383.488281 280.328125 C 389.074219 288.238281 396.894531 292.191406 406.9375 292.191406 C 415.960938 292.191406 422.898438 290.140625 427.714844 286.0625 C 432.53125 281.964844 435.746094 274.84375 437.328125 264.6875 L 453.664062 264.6875 Z M 453.644531 264.6875 " fill-opacity="1" fill-rule="nonzero"/><path fill="#ffffff" d="M 529.914062 294.761719 C 523.824219 301.933594 514.875 305.511719 503.085938 305.511719 C 493.324219 305.511719 485.886719 302.671875 480.78125 297.007812 C 475.679688 291.328125 473.089844 282.933594 473.035156 271.824219 L 473.035156 212.214844 L 488.6875 212.214844 L 488.6875 271.394531 C 488.6875 285.269531 494.332031 292.226562 505.617188 292.226562 C 517.585938 292.226562 525.53125 287.769531 529.484375 278.851562 L 529.484375 212.214844 L 545.136719 212.214844 L 545.136719 303.820312 L 530.238281 303.820312 L 529.898438 294.761719 Z M 529.914062 294.761719 " fill-opacity="1" fill-rule="nonzero"/><path fill="#ffffff" d="M 646.476562 259.042969 C 646.476562 273.046875 643.257812 284.28125 636.824219 292.785156 C 630.390625 301.289062 621.765625 305.53125 610.929688 305.53125 C 599.355469 305.53125 590.40625 301.429688 584.097656 293.253906 L 583.34375 303.839844 L 568.949219 303.839844 L 568.949219 173.785156 L 584.601562 173.785156 L 584.601562 222.300781 C 590.925781 214.464844 599.644531 210.527344 610.75 210.527344 C 621.855469 210.527344 630.605469 214.734375 636.949219 223.144531 C 643.292969 231.558594 646.476562 243.0625 646.476562 257.695312 Z M 630.824219 257.265625 C 630.824219 246.605469 628.753906 238.351562 624.640625 232.546875 C 620.523438 226.742188 614.59375 223.828125 606.867188 223.828125 C 596.535156 223.828125 589.113281 228.628906 584.601562 238.226562 L 584.601562 277.847656 C 589.398438 287.445312 596.875 292.246094 607.027344 292.246094 C 614.539062 292.246094 620.382812 289.332031 624.550781 283.527344 C 628.71875 277.722656 630.824219 268.964844 630.824219 257.28125 Z M 630.824219 257.265625 " fill-opacity="1" fill-rule="nonzero"/><path fill="#ffffff" d="M 704.214844 305.511719 C 691.796875 305.511719 681.699219 301.429688 673.917969 293.269531 C 666.136719 285.109375 662.234375 274.199219 662.234375 260.554688 L 662.234375 257.675781 C 662.234375 248.582031 663.980469 240.472656 667.449219 233.339844 C 670.914062 226.203125 675.769531 220.609375 682.003906 216.566406 C 688.238281 212.539062 694.996094 210.507812 702.277344 210.507812 C 714.191406 210.507812 723.445312 214.425781 730.039062 222.28125 C 736.636719 230.121094 739.941406 241.355469 739.941406 255.988281 L 739.941406 262.511719 L 677.890625 262.511719 C 678.121094 271.535156 680.746094 278.835938 685.796875 284.40625 C 690.847656 289.960938 697.261719 292.75 705.0625 292.75 C 710.597656 292.75 715.269531 291.617188 719.113281 289.371094 C 722.941406 287.105469 726.304688 284.121094 729.195312 280.398438 L 738.757812 287.859375 C 731.082031 299.652344 719.5625 305.546875 704.214844 305.546875 Z M 702.257812 223.378906 C 695.933594 223.378906 690.628906 225.679688 686.335938 230.28125 C 682.039062 234.882812 679.398438 241.335938 678.375 249.625 L 724.253906 249.625 L 724.253906 248.4375 C 723.804688 240.472656 721.667969 234.308594 717.820312 229.941406 C 713.976562 225.574219 708.800781 223.378906 702.238281 223.378906 Z M 702.257812 223.378906 " fill-opacity="1" fill-rule="nonzero"/><path fill="#ffffff" d="M 871.472656 271.554688 L 819.84375 271.554688 L 808.25 303.820312 L 791.484375 303.820312 L 838.550781 180.542969 L 852.765625 180.542969 L 899.921875 303.820312 L 883.246094 303.820312 Z M 824.75 258.253906 L 866.65625 258.253906 L 845.667969 200.585938 L 824.765625 258.253906 Z M 824.75 258.253906 " fill-opacity="1" fill-rule="nonzero"/><path fill="#ffffff" d="M 917.695312 180.542969 L 933.941406 180.542969 L 933.941406 303.820312 L 917.695312 303.820312 Z M 917.695312 180.542969 " fill-opacity="1" fill-rule="nonzero"/><path fill="#ffffff" d="M 257.402344 63.769531 L 257.402344 175.078125 L 144.597656 175.078125 L 144.597656 287.914062 L 33.320312 287.914062 L 33.320312 305.492188 L 274.976562 305.492188 L 274.976562 63.769531 Z M 153.386719 287.914062 L 153.386719 183.867188 L 257.402344 183.867188 L 257.402344 287.914062 Z M 153.386719 287.914062 " fill-opacity="1" fill-rule="nonzero"/></svg>